<?xml version="1.0" encoding="us-ascii" standalone="no"?><svg xmlns="http://www.w3.org/2000/svg" xmlns:xlink="http://www.w3.org/1999/xlink" contentStyleType="text/css" height="333px" preserveAspectRatio="none" style="width:650px;height:333px;background:#FFFFFF;" version="1.1" viewBox="0 0 650 333" width="650px" zoomAndPan="magnify"><defs/><g><text fill="#000000" font-family="sans-serif" font-size="14" font-weight="bold" lengthAdjust="spacing" textLength="559" x="47.75" y="30.1074">System Sequence Diagram (SSD) - Calculation of Total Production Time for Items</text><rect fill="#FFFFFF" height="107.873" style="stroke:#181818;stroke-width:1.0;" width="10" x="57.5" y="133.2422"/><rect fill="#FFFFFF" height="75.582" style="stroke:#181818;stroke-width:1.0;" width="10" x="341.5" y="156.5332"/><line style="stroke:#181818;stroke-width:0.5;stroke-dasharray:5.0,5.0;" x1="62" x2="62" y1="123.2422" y2="250.1152"/><line style="stroke:#181818;stroke-width:0.5;stroke-dasharray:5.0,5.0;" x1="346.5" x2="346.5" y1="123.2422" y2="250.1152"/><text fill="#000000" font-family="sans-serif" font-size="14" lengthAdjust="spacing" textLength="109" x="5" y="119.7285">Product Manager</text><ellipse cx="62.5" cy="53.1211" fill="#E3E3E3" rx="8" ry="8" style="stroke:#181818;stroke-width:0.5;"/><path d="M62.5,61.1211 L62.5,88.1211 M49.5,69.1211 L75.5,69.1211 M62.5,88.1211 L49.5,103.1211 M62.5,88.1211 L75.5,103.1211 " fill="none" style="stroke:#181818;stroke-width:0.5;"/><text fill="#000000" font-family="sans-serif" font-size="14" lengthAdjust="spacing" textLength="109" x="5" y="264.2227">Product Manager</text><ellipse cx="62.5" cy="276.2363" fill="#E3E3E3" rx="8" ry="8" style="stroke:#181818;stroke-width:0.5;"/><path d="M62.5,284.2363 L62.5,311.2363 M49.5,292.2363 L75.5,292.2363 M62.5,311.2363 L49.5,326.2363 M62.5,311.2363 L75.5,326.2363 " fill="none" style="stroke:#181818;stroke-width:0.5;"/><rect fill="#E3E3E3" height="32.6211" rx="2.5" ry="2.5" style="stroke:#181818;stroke-width:0.5;" width="64" x="314.5" y="89.6211"/><text fill="#000000" font-family="sans-serif" font-size="14" lengthAdjust="spacing" textLength="50" x="321.5" y="111.7285">:System</text><rect fill="#E3E3E3" height="32.6211" rx="2.5" ry="2.5" style="stroke:#181818;stroke-width:0.5;" width="64" x="314.5" y="249.1152"/><text fill="#000000" font-family="sans-serif" font-size="14" lengthAdjust="spacing" textLength="50" x="321.5" y="271.2227">:System</text><rect fill="#FFFFFF" height="107.873" style="stroke:#181818;stroke-width:1.0;" width="10" x="57.5" y="133.2422"/><rect fill="#FFFFFF" height="75.582" style="stroke:#181818;stroke-width:1.0;" width="10" x="341.5" y="156.5332"/><polygon fill="#181818" points="329.5,152.5332,339.5,156.5332,329.5,160.5332,333.5,156.5332" style="stroke:#181818;stroke-width:1.0;"/><line style="stroke:#181818;stroke-width:1.0;" x1="67.5" x2="335.5" y1="156.5332" y2="156.5332"/><text fill="#000000" font-family="sans-serif" font-size="13" font-weight="bold" lengthAdjust="spacing" textLength="7" x="74.5" y="151.2705">1</text><text fill="#000000" font-family="sans-serif" font-size="13" lengthAdjust="spacing" textLength="244" x="85.5" y="151.2705">Requests total production time of all article</text><line style="stroke:#181818;stroke-width:1.0;" x1="351.5" x2="393.5" y1="187.8242" y2="187.8242"/><line style="stroke:#181818;stroke-width:1.0;" x1="393.5" x2="393.5" y1="187.8242" y2="200.8242"/><line style="stroke:#181818;stroke-width:1.0;" x1="352.5" x2="393.5" y1="200.8242" y2="200.8242"/><polygon fill="#181818" points="362.5,196.8242,352.5,200.8242,362.5,204.8242,358.5,200.8242" style="stroke:#181818;stroke-width:1.0;"/><text fill="#000000" font-family="sans-serif" font-size="13" font-weight="bold" lengthAdjust="spacing" textLength="7" x="358.5" y="182.5615">2</text><text fill="#000000" font-family="sans-serif" font-size="13" lengthAdjust="spacing" textLength="274" x="369.5" y="182.5615">Calculate the total production time for the article</text><polygon fill="#181818" points="78.5,228.1152,68.5,232.1152,78.5,236.1152,74.5,232.1152" style="stroke:#181818;stroke-width:1.0;"/><line style="stroke:#181818;stroke-width:1.0;stroke-dasharray:2.0,2.0;" x1="72.5" x2="345.5" y1="232.1152" y2="232.1152"/><text fill="#000000" font-family="sans-serif" font-size="13" font-weight="bold" lengthAdjust="spacing" textLength="7" x="84.5" y="226.8525">3</text><text fill="#000000" font-family="sans-serif" font-size="13" lengthAdjust="spacing" textLength="167" x="95.5" y="226.8525">Returns total production time</text><!--SRC=[TP4nRiCm34LtdOBmr0wvG8OkoTAXG57d0gnCsq9aoPMe1hbzALbEKnVH993VZuzoF1itOy099k-y7eEV23WaKl7McL6VSQ2MhvOWa6PqWxqFn14xVp5kW1vj9ANOi4JRQsIQeAMlH4uJ70qEEVxKjiTdsC41hKuMsNW7leUJPxJm7doNTAcTZBZqFi2hOA9IcDYxD7rIaBjcQJGr3M_en30qW74br98IHJRQpEWOcltYL7BBjQ3CDp9jFrGWvsyDTY_hLdluo7j5Zi15VFuLvomk6w6rO8fxHjtcrC5GJmNUezUNaLynqWD-VfZSNGQeVpZXRUIpCgVW7XWNGaTRpHy0]--></g></svg>