<?xml version="1.0" encoding="us-ascii" standalone="no"?><svg xmlns="http://www.w3.org/2000/svg" xmlns:xlink="http://www.w3.org/1999/xlink" contentStyleType="text/css" height="421px" preserveAspectRatio="none" style="width:850px;height:421px;background:#FFFFFF;" version="1.1" viewBox="0 0 850 421" width="850px" zoomAndPan="magnify"><defs/><g><text fill="#000000" font-family="sans-serif" font-size="14" font-weight="bold" lengthAdjust="spacing" textLength="474" x="190.25" y="30.1074">System Sequence Diagram (SSD) - USEI02: Implementing a Simulator</text><rect fill="#FFFFFF" height="196.4551" style="stroke:#181818;stroke-width:1.0;" width="10" x="57.5" y="133.2422"/><rect fill="#FFFFFF" height="164.1641" style="stroke:#181818;stroke-width:1.0;" width="10" x="494.5" y="156.5332"/><line style="stroke:#181818;stroke-width:0.5;stroke-dasharray:5.0,5.0;" x1="62" x2="62" y1="123.2422" y2="338.6973"/><line style="stroke:#181818;stroke-width:0.5;stroke-dasharray:5.0,5.0;" x1="499.5" x2="499.5" y1="123.2422" y2="338.6973"/><text fill="#000000" font-family="sans-serif" font-size="14" lengthAdjust="spacing" textLength="109" x="5" y="119.7285">Product Manager</text><ellipse cx="62.5" cy="53.1211" fill="#E3E3E3" rx="8" ry="8" style="stroke:#181818;stroke-width:0.5;"/><path d="M62.5,61.1211 L62.5,88.1211 M49.5,69.1211 L75.5,69.1211 M62.5,88.1211 L49.5,103.1211 M62.5,88.1211 L75.5,103.1211 " fill="none" style="stroke:#181818;stroke-width:0.5;"/><text fill="#000000" font-family="sans-serif" font-size="14" lengthAdjust="spacing" textLength="109" x="5" y="352.8047">Product Manager</text><ellipse cx="62.5" cy="364.8184" fill="#E3E3E3" rx="8" ry="8" style="stroke:#181818;stroke-width:0.5;"/><path d="M62.5,372.8184 L62.5,399.8184 M49.5,380.8184 L75.5,380.8184 M62.5,399.8184 L49.5,414.8184 M62.5,399.8184 L75.5,414.8184 " fill="none" style="stroke:#181818;stroke-width:0.5;"/><rect fill="#E3E3E3" height="32.6211" rx="2.5" ry="2.5" style="stroke:#181818;stroke-width:0.5;" width="64" x="467.5" y="89.6211"/><text fill="#000000" font-family="sans-serif" font-size="14" lengthAdjust="spacing" textLength="50" x="474.5" y="111.7285">:System</text><rect fill="#E3E3E3" height="32.6211" rx="2.5" ry="2.5" style="stroke:#181818;stroke-width:0.5;" width="64" x="467.5" y="337.6973"/><text fill="#000000" font-family="sans-serif" font-size="14" lengthAdjust="spacing" textLength="50" x="474.5" y="359.8047">:System</text><rect fill="#FFFFFF" height="196.4551" style="stroke:#181818;stroke-width:1.0;" width="10" x="57.5" y="133.2422"/><rect fill="#FFFFFF" height="164.1641" style="stroke:#181818;stroke-width:1.0;" width="10" x="494.5" y="156.5332"/><polygon fill="#181818" points="482.5,152.5332,492.5,156.5332,482.5,160.5332,486.5,156.5332" style="stroke:#181818;stroke-width:1.0;"/><line style="stroke:#181818;stroke-width:1.0;stroke-dasharray:2.0,2.0;" x1="67.5" x2="488.5" y1="156.5332" y2="156.5332"/><text fill="#000000" font-family="sans-serif" font-size="13" font-weight="bold" lengthAdjust="spacing" textLength="7" x="74.5" y="151.2705">1</text><text fill="#000000" font-family="sans-serif" font-size="13" lengthAdjust="spacing" textLength="328" x="85.5" y="151.2705">Start simulation with data (articles.csv, workstations.csv)</text><line style="stroke:#181818;stroke-width:1.0;" x1="504.5" x2="546.5" y1="187.8242" y2="187.8242"/><line style="stroke:#181818;stroke-width:1.0;" x1="546.5" x2="546.5" y1="187.8242" y2="200.8242"/><line style="stroke:#181818;stroke-width:1.0;" x1="505.5" x2="546.5" y1="200.8242" y2="200.8242"/><polygon fill="#181818" points="515.5,196.8242,505.5,200.8242,515.5,204.8242,511.5,200.8242" style="stroke:#181818;stroke-width:1.0;"/><text fill="#000000" font-family="sans-serif" font-size="13" font-weight="bold" lengthAdjust="spacing" textLength="7" x="511.5" y="182.5615">2</text><text fill="#000000" font-family="sans-serif" font-size="13" lengthAdjust="spacing" textLength="191" x="522.5" y="182.5615">Create queues for each operation</text><line style="stroke:#181818;stroke-width:1.0;" x1="504.5" x2="546.5" y1="232.1152" y2="232.1152"/><line style="stroke:#181818;stroke-width:1.0;" x1="546.5" x2="546.5" y1="232.1152" y2="245.1152"/><line style="stroke:#181818;stroke-width:1.0;" x1="505.5" x2="546.5" y1="245.1152" y2="245.1152"/><polygon fill="#181818" points="515.5,241.1152,505.5,245.1152,515.5,249.1152,511.5,245.1152" style="stroke:#181818;stroke-width:1.0;"/><text fill="#000000" font-family="sans-serif" font-size="13" font-weight="bold" lengthAdjust="spacing" textLength="7" x="511.5" y="226.8525">3</text><text fill="#000000" font-family="sans-serif" font-size="13" lengthAdjust="spacing" textLength="321" x="522.5" y="226.8525">Assign items to available workstations based on priority</text><line style="stroke:#181818;stroke-width:1.0;" x1="504.5" x2="546.5" y1="276.4063" y2="276.4063"/><line style="stroke:#181818;stroke-width:1.0;" x1="546.5" x2="546.5" y1="276.4063" y2="289.4063"/><line style="stroke:#181818;stroke-width:1.0;" x1="505.5" x2="546.5" y1="289.4063" y2="289.4063"/><polygon fill="#181818" points="515.5,285.4063,505.5,289.4063,515.5,293.4063,511.5,289.4063" style="stroke:#181818;stroke-width:1.0;"/><text fill="#000000" font-family="sans-serif" font-size="13" font-weight="bold" lengthAdjust="spacing" textLength="7" x="511.5" y="271.1436">4</text><text fill="#000000" font-family="sans-serif" font-size="13" lengthAdjust="spacing" textLength="176" x="522.5" y="271.1436">Process items at workstations</text><polygon fill="#181818" points="78.5,316.6973,68.5,320.6973,78.5,324.6973,74.5,320.6973" style="stroke:#181818;stroke-width:1.0;"/><line style="stroke:#181818;stroke-width:1.0;" x1="72.5" x2="498.5" y1="320.6973" y2="320.6973"/><text fill="#000000" font-family="sans-serif" font-size="13" font-weight="bold" lengthAdjust="spacing" textLength="7" x="84.5" y="315.4346">5</text><text fill="#000000" font-family="sans-serif" font-size="13" lengthAdjust="spacing" textLength="392" x="95.5" y="315.4346">Display simulation results (total production time, workstation usage)</text><!--SRC=[ZLBBQXj14BpFLnGwIM05awCE1XFdu4F0iEG3MhFjLQDvRAPx9FJtdbq9PnqSy9o6xkggckhHewIH2aN4dB8_b1mPLYexVU-Cv8yqS6UNm2ZiZT8GbW0zK9_FaWQyKb1spiGQjBkeSKJ7VoedptWI6YRukkkUDjZYT_Vp-Vxx3izn31mvsSH0w2JMG9QBSrGjfnhtN1pvLi7gfUI-UiClIirIMO4KZtsKv9eL4oyZ9SDgTzMUspS-oSbDB78YuzkCGplp5TljmmA97JfhXD2_fRFO0JqPOJrB1TPlNaztEEToL9j1SsKpqxvBBVLnEmkbVtL_59wcMcQL5Q_jqKp-W3nokP9yWUDHLOO4QH4eB8DE987sRITBhzYJSeysCHR9HUpo9ODj1PvLR-na7pZ_nt0DUTV-W8w1BijS2siDfbXRDWhDoxpXgMCI-KEygDgslhcAzFnPn6y0]--></g></svg>