<?xml version="1.0" encoding="us-ascii" standalone="no"?><svg xmlns="http://www.w3.org/2000/svg" xmlns:xlink="http://www.w3.org/1999/xlink" contentStyleType="text/css" height="421px" preserveAspectRatio="none" style="width:658px;height:421px;background:#FFFFFF;" version="1.1" viewBox="0 0 658 421" width="658px" zoomAndPan="magnify"><defs/><g><text fill="#000000" font-family="sans-serif" font-size="14" font-weight="bold" lengthAdjust="spacing" textLength="487" x="87.5" y="30.1074">System Sequence Diagram (SSD) - Calculate Total Quantities and Time</text><rect fill="#FFFFFF" height="187.4551" style="stroke:#181818;stroke-width:1.0;" width="10" x="67" y="133.2422"/><rect fill="#FFFFFF" height="164.1641" style="stroke:#181818;stroke-width:1.0;" width="10" x="364" y="156.5332"/><line style="stroke:#181818;stroke-width:0.5;stroke-dasharray:5.0,5.0;" x1="72" x2="72" y1="123.2422" y2="338.6973"/><line style="stroke:#181818;stroke-width:0.5;stroke-dasharray:5.0,5.0;" x1="369" x2="369" y1="123.2422" y2="338.6973"/><text fill="#000000" font-family="sans-serif" font-size="14" lengthAdjust="spacing" textLength="128" x="5" y="119.7285">Production Manager</text><ellipse cx="72" cy="53.1211" fill="#E3E3E3" rx="8" ry="8" style="stroke:#181818;stroke-width:0.5;"/><path d="M72,61.1211 L72,88.1211 M59,69.1211 L85,69.1211 M72,88.1211 L59,103.1211 M72,88.1211 L85,103.1211 " fill="none" style="stroke:#181818;stroke-width:0.5;"/><text fill="#000000" font-family="sans-serif" font-size="14" lengthAdjust="spacing" textLength="128" x="5" y="352.8047">Production Manager</text><ellipse cx="72" cy="364.8184" fill="#E3E3E3" rx="8" ry="8" style="stroke:#181818;stroke-width:0.5;"/><path d="M72,372.8184 L72,399.8184 M59,380.8184 L85,380.8184 M72,399.8184 L59,414.8184 M72,399.8184 L85,414.8184 " fill="none" style="stroke:#181818;stroke-width:0.5;"/><rect fill="#E3E3E3" height="32.6211" rx="2.5" ry="2.5" style="stroke:#181818;stroke-width:0.5;" width="64" x="337" y="89.6211"/><text fill="#000000" font-family="sans-serif" font-size="14" lengthAdjust="spacing" textLength="50" x="344" y="111.7285">:System</text><rect fill="#E3E3E3" height="32.6211" rx="2.5" ry="2.5" style="stroke:#181818;stroke-width:0.5;" width="64" x="337" y="337.6973"/><text fill="#000000" font-family="sans-serif" font-size="14" lengthAdjust="spacing" textLength="50" x="344" y="359.8047">:System</text><rect fill="#FFFFFF" height="187.4551" style="stroke:#181818;stroke-width:1.0;" width="10" x="67" y="133.2422"/><rect fill="#FFFFFF" height="164.1641" style="stroke:#181818;stroke-width:1.0;" width="10" x="364" y="156.5332"/><polygon fill="#181818" points="352,152.5332,362,156.5332,352,160.5332,356,156.5332" style="stroke:#181818;stroke-width:1.0;"/><line style="stroke:#181818;stroke-width:1.0;" x1="77" x2="358" y1="156.5332" y2="156.5332"/><text fill="#000000" font-family="sans-serif" font-size="13" font-weight="bold" lengthAdjust="spacing" textLength="7" x="84" y="151.2705">1</text><text fill="#000000" font-family="sans-serif" font-size="13" lengthAdjust="spacing" textLength="257" x="95" y="151.2705">Request total quantities and time calculation</text><line style="stroke:#181818;stroke-width:1.0;" x1="374" x2="416" y1="187.8242" y2="187.8242"/><line style="stroke:#181818;stroke-width:1.0;" x1="416" x2="416" y1="187.8242" y2="200.8242"/><line style="stroke:#181818;stroke-width:1.0;" x1="375" x2="416" y1="200.8242" y2="200.8242"/><polygon fill="#181818" points="385,196.8242,375,200.8242,385,204.8242,381,200.8242" style="stroke:#181818;stroke-width:1.0;"/><text fill="#000000" font-family="sans-serif" font-size="13" font-weight="bold" lengthAdjust="spacing" textLength="7" x="381" y="182.5615">2</text><text fill="#000000" font-family="sans-serif" font-size="13" lengthAdjust="spacing" textLength="138" x="392" y="182.5615">Traverse production tree</text><line style="stroke:#181818;stroke-width:1.0;" x1="374" x2="416" y1="232.1152" y2="232.1152"/><line style="stroke:#181818;stroke-width:1.0;" x1="416" x2="416" y1="232.1152" y2="245.1152"/><line style="stroke:#181818;stroke-width:1.0;" x1="375" x2="416" y1="245.1152" y2="245.1152"/><polygon fill="#181818" points="385,241.1152,375,245.1152,385,249.1152,381,245.1152" style="stroke:#181818;stroke-width:1.0;"/><text fill="#000000" font-family="sans-serif" font-size="13" font-weight="bold" lengthAdjust="spacing" textLength="7" x="381" y="226.8525">3</text><text fill="#000000" font-family="sans-serif" font-size="13" lengthAdjust="spacing" textLength="158" x="392" y="226.8525">Sum quantities of materials</text><line style="stroke:#181818;stroke-width:1.0;" x1="374" x2="416" y1="276.4063" y2="276.4063"/><line style="stroke:#181818;stroke-width:1.0;" x1="416" x2="416" y1="276.4063" y2="289.4063"/><line style="stroke:#181818;stroke-width:1.0;" x1="375" x2="416" y1="289.4063" y2="289.4063"/><polygon fill="#181818" points="385,285.4063,375,289.4063,385,293.4063,381,289.4063" style="stroke:#181818;stroke-width:1.0;"/><text fill="#000000" font-family="sans-serif" font-size="13" font-weight="bold" lengthAdjust="spacing" textLength="7" x="381" y="271.1436">4</text><text fill="#000000" font-family="sans-serif" font-size="13" lengthAdjust="spacing" textLength="259" x="392" y="271.1436">Calculate total time using operation averages</text><polygon fill="#181818" points="83,316.6973,73,320.6973,83,324.6973,79,320.6973" style="stroke:#181818;stroke-width:1.0;"/><line style="stroke:#181818;stroke-width:1.0;stroke-dasharray:2.0,2.0;" x1="77" x2="368" y1="320.6973" y2="320.6973"/><text fill="#000000" font-family="sans-serif" font-size="13" font-weight="bold" lengthAdjust="spacing" textLength="7" x="89" y="315.4346">5</text><text fill="#000000" font-family="sans-serif" font-size="13" lengthAdjust="spacing" textLength="188" x="100" y="315.4346">Returns total quantities and time</text><!--SRC=[VP4nRiCm34LtduB8r0wvG8OkpLgWhNm1LcOS8PRaK5IAtBwKxSHkZKQJG95Vxt-camizCdhmCKHxvEW9X3DLwVxIeprXIqQk7G6J5Gnjjsn8HspYjmij7B1BL5NYH5lDDGbvC7JE52p1tc5Rsf-CsJ_35bwnixb38QYZO0SV6ODEEag0eO7QUPN2B35a_qMiTokHOVFEiSbMN0pmXa79U0EOO2vFrKhfn5dNgoniTYFEq3fU1q5tAG3hsGhqhCgmVRdPsi5dCPO4PA0__wONfGSxELI1GU_-tmq0fZDfBjLhnWjn8kXdky94ZsPCzakEU02llx7JhJmQcnSnMXdOSoeBZJtnm0-5HYD8QsYLMWTLuf7C8VqVpwZKqDzK5fNrNdu0]--></g></svg>